# xmcd
#
# Track frame offsets:
#	150
#	16929
#	32950
#	50760
#	63540
#	79727
#	97100
#	129482
#	160730
#	173787
#	193675
#
# Disc length: 2828 seconds
#
# Revision: 1
# Processed by: cddbd v1.5.1PL0 Copyright (c) Steve Scherf et al.
# Submitted via: audiograbber 1.83.01
#
DISCID=930b0a0b
DTITLE=N.E.R.D - Fly Or Die (bootleg)
DYEAR=2004
DGENRE=Rock
TTITLE0=Don't Worry About It
TTITLE1=Fly or Die
TTITLE2=Jump
TTITLE3=Backseat Love
TTITLE4=She Wants To Move
TTITLE5=Breakout
TTITLE6=Waiting For You
TTITLE7=Preservation
TTITLE8=Thrasher
TTITLE9=Maybe
TTITLE10=The Way She Dances
EXTD=
EXTT0=
EXTT1=
EXTT2=
EXTT3=
EXTT4=
EXTT5=
EXTT6=
EXTT7=
EXTT8=
EXTT9=
EXTT10=
PLAYORDER=
